<svg id="Layer_1" data-name="Layer 1" xmlns="http://www.w3.org/2000/svg" viewBox="0 0 413.31 57.5"><g id="Layer_2" data-name="Layer 2"><g id="Layer_1-2" data-name="Layer 1-2"><path d="M10.72,9.1a25.61,25.61,0,0,1,10.74,7.71l-3-8.16c-1.12-3.42-3.63-6.73-7.76-7.3L0,0,4.38,10.51a8.33,8.33,0,0,0,6.75,5.4l5.38.92Z" transform="translate(0 0)" fill="#00ff3b"/><path d="M73.39,8.66,58.21,50.3,57,53.48a4.79,4.79,0,0,1-4.44,3.17h-.72a3.88,3.88,0,0,1-3.66-2.58L39.61,30.56,31.39,53.24l-.18.41-.12.42a4,4,0,0,1-3.72,2.58h-.66a4.88,4.88,0,0,1-4.5-3.17L21.07,50.3,9.37,19.55l9.37.9A3.91,3.91,0,0,1,22.4,23l4.37,11.7L34,15l1-3c.06-.12.12-.18.12-.3a.06.06,0,0,1,.06-.06h0l.12-.48A3.89,3.89,0,0,1,39,8.66h1.38a3.74,3.74,0,0,1,3.54,2.52L52.51,34.7l8.58-23.52a3.85,3.85,0,0,1,3.66-2.52Z" transform="translate(0 0)" fill="#fff" stroke="#00ff3b" stroke-miterlimit="10"/><path d="M79.39,8.66h7.26a4.17,4.17,0,0,1,4.2,4.14V27h18.6V8.66h7.26a4.21,4.21,0,0,1,4.2,4.2V56.65H109.45V38.36H90.85V56.65H79.39Z" transform="translate(0 0)" fill="#fff" stroke="#00ff3b" stroke-miterlimit="10"/><path d="M148,11.36l.06-.06a4.15,4.15,0,0,1,3.84-2.58,4.2,4.2,0,0,1,3.84,2.46L177,56.59l-.12.06H165.13l-4.62-9.89h-17.1l-4.62,9.89H126.91ZM155.47,36,152,28.4,148.45,36Z" transform="translate(0 0)" fill="#fff" stroke="#00ff3b" stroke-miterlimit="10"/><path d="M190.63,20.06H175.51V8.66H213a4.21,4.21,0,0,1,4.2,4.2v7.2H202V56.65H190.6Z" transform="translate(0 0)" fill="#fff" stroke="#00ff3b" stroke-miterlimit="10"/><path d="M221.65,45.5h14.7c2.7,0,4.74-1.62,4.86-4.26v-.48c-.12-2.64-2-4.08-4.74-4.08h-.42c-6.18,0-11.34-3.06-13.5-8.46a13.36,13.36,0,0,1-.9-4.92v-.18A14.31,14.31,0,0,1,235.93,8.84h10.62a4.25,4.25,0,0,1,4.2,4.2l.12,6.66h-14.7c-2.7,0-5,.72-5.1,3.42v.48c.12,2.64,2.28,3.78,5,3.78h.42c7.08,0,11.58,3.3,13.5,8.76a14.77,14.77,0,0,1,.9,4.92c0,.06,0,.06-.06.12h.06c.22,7.92-6.5,15.82-14.36,15.82H221.65Z" transform="translate(0 0)" fill="#00ff3b" stroke="#fff" stroke-miterlimit="10"/><path d="M258.37,36V8.66h7.2a4.16,4.16,0,0,1,4.14,4.18V36.08a9,9,0,0,0,8.52,9.06,8.85,8.85,0,0,0,9.17-8.51c0-.13,0-.25,0-.37V8.66h7.2a4.17,4.17,0,0,1,4.2,4.14V36.26a20.34,20.34,0,0,1-20.47,20.21h-.11C267.13,56.47,258.37,47.06,258.37,36Z" transform="translate(0 0)" fill="#00ff3b" stroke="#fff" stroke-miterlimit="10"/><path d="M306.31,35.78a4.16,4.16,0,0,1,4.12-4.2h13.22a5.84,5.84,0,0,0,5.58-5.7,5.76,5.76,0,0,0-5.58-5.76H306.31V8.66h17.82a17.21,17.21,0,0,1,15.54,11.46,16.6,16.6,0,0,1,0,11.46A17.16,17.16,0,0,1,323.89,43h-6.18V56.65h-11.4Z" transform="translate(0 0)" fill="#00ff3b" stroke="#fff" stroke-miterlimit="10"/><path d="M345.19,35.78a4.16,4.16,0,0,1,4.12-4.2h13.22a5.84,5.84,0,0,0,5.58-5.7,5.76,5.76,0,0,0-5.58-5.76H345.19V8.66H363a17.21,17.21,0,0,1,15.54,11.46,16.6,16.6,0,0,1,0,11.46A17.15,17.15,0,0,1,362.77,43h-6.18V56.65h-11.4Z" transform="translate(0 0)" fill="#00ff3b" stroke="#fff" stroke-miterlimit="10"/><path d="M383.57,45.5h14.7c2.7,0,4.74-1.62,4.86-4.26v-.48c-.12-2.64-2-4.08-4.74-4.08H398c-6.18,0-11.34-3.06-13.5-8.46a13.36,13.36,0,0,1-.9-4.92v-.18A14.31,14.31,0,0,1,397.85,8.84h10.62a4.25,4.25,0,0,1,4.2,4.2l.12,6.66h-14.7c-2.7,0-5,.72-5.1,3.42v.48c.12,2.64,2.28,3.78,5,3.78h.42c7.08,0,11.58,3.3,13.5,8.76a14.77,14.77,0,0,1,.9,4.92c0,.06,0,.06-.06.12h.06C413,49.1,406.31,57,398.45,57H383.57Z" transform="translate(0 0)" fill="#00ff3b" stroke="#fff" stroke-miterlimit="10"/></g></g></svg>