<?xml version="1.0" encoding="utf-8"?>
<!-- Generator: Adobe Illustrator 25.4.1, SVG Export Plug-In . SVG Version: 6.00 Build 0)  -->
<svg version="1.1"
	 id="svgSupps" inkscape:version="0.91 r13725" sodipodi:docname="Map_pin.svg" xmlns:cc="http://creativecommons.org/ns#" xmlns:dc="http://purl.org/dc/elements/1.1/" xmlns:inkscape="http://www.inkscape.org/namespaces/inkscape" xmlns:rdf="http://www.w3.org/1999/02/22-rdf-syntax-ns#" xmlns:sodipodi="http://sodipodi.sourceforge.net/DTD/sodipodi-0.dtd" xmlns:svg="http://www.w3.org/2000/svg"
	 xmlns="http://www.w3.org/2000/svg" xmlns:xlink="http://www.w3.org/1999/xlink" x="0px" y="0px" viewBox="0 0 151 207.1"
	 style="enable-background:new 0 0 151 207.1;" xml:space="preserve">
<style type="text/css">
	.st0{fill:#1991FF;fill-opacity:0.9882;stroke:#FFFFFF;stroke-width:3;stroke-miterlimit:10;}
	.st1{fill:#1991FF;fill-opacity:0.9882;}
	.st2{opacity:0.3402;fill-opacity:0;enable-background:new    ;}
	.st3{fill:#00FF22;stroke:#1991FF;stroke-width:4;stroke-miterlimit:10;}
	.st4{fill:#00FF22;}
</style>
<defs>
	
		<inkscape:perspective  id="perspective2824" inkscape:persp3d-origin="0.5 : 0.33333333 : 1" inkscape:vp_x="0 : 0.5 : 1" inkscape:vp_y="0 : 1000 : 0" inkscape:vp_z="1 : 0.5 : 1" sodipodi:type="inkscape:persp3d">
		</inkscape:perspective>
</defs>
<sodipodi:namedview  bordercolor="#666666" borderopacity="1" gridtolerance="10" guidetolerance="10" id="namedview2818" inkscape:current-layer="svg2816" inkscape:cx="-5.0939007" inkscape:cy="60.493358" inkscape:pageopacity="0" inkscape:pageshadow="2" inkscape:window-height="1017" inkscape:window-maximized="1" inkscape:window-width="1920" inkscape:window-x="1912" inkscape:window-y="-8" inkscape:zoom="3.0991164" objecttolerance="10" pagecolor="#ffffff" showgrid="false">
	</sodipodi:namedview>
<path id="path4127" sodipodi:nodetypes="ccccccccccsc" class="st0" d="M75.6,201.7c-0.5-1.1-9.7-10-16.2-18.3
	c-39-51.5-82.6-99.7-31.8-158.1c22.5-21.7,50.2-23,78.7-12.8c80.2,46.4,22.2,122.2-15.9,171.9L75.6,201.7z M99.6,122.5
	C153.1,84.2,111.8,10.6,53.1,35c-17.2,9.2-25.6,25-25.9,43.9c-0.8,18.3,8.9,33.6,24.2,43c11.1,5.9,15.9,7,28.3,6.4
	C87.8,127.6,92.5,126.2,99.6,122.5z"/>
<path id="path4129" sodipodi:cx="52.363636" sodipodi:cy="49.05526" sodipodi:end="8.0386371" sodipodi:open="true" sodipodi:rx="51.222816" sodipodi:ry="41.754009" sodipodi:start="1.7808687" sodipodi:type="arc" class="st1" d="
	M60.3,140.8c-38-8-62.2-44.4-54.2-81.6S51.5-1.4,89.5,6.6s62.2,44.2,54.1,81.4c-8,36.4-44.2,60-81.7,53.1"/>
<path id="path4131" sodipodi:cx="49.05526" sodipodi:cy="48.59893" sodipodi:end="8.0386371" sodipodi:open="true" sodipodi:rx="26.010695" sodipodi:ry="20.991087" sodipodi:start="1.7808687" sodipodi:type="arc" class="st2" d="
	M71.4,111.9c-21.9-3.8-36-21.3-31.3-38.9s26.2-29.1,48.3-25.3c22,3.8,35.9,21.2,31.2,38.9c-4.5,17.3-25.5,28.6-47.2,25.5"/>
<path id="path4149" sodipodi:cx="52.705883" sodipodi:cy="52.021389" sodipodi:end="8.0386371" sodipodi:open="true" sodipodi:rx="34.452763" sodipodi:ry="33.540108" sodipodi:start="1.7808687" sodipodi:type="arc" class="st3" d="
	M64.8,131.1c-28.3-6.2-46.2-34.8-40.2-63.9s33.7-47.7,61.9-41.4s46.2,34.8,40.2,63.9c-5.8,28.4-32.7,47-60.6,41.7"/>
<path id="path4184" sodipodi:cx="64.211853" sodipodi:cy="68.789574" sodipodi:end="8.0386371" sodipodi:open="true" sodipodi:rx="34.203297" sodipodi:ry="36.623341" sodipodi:start="1.7808687" sodipodi:type="arc" class="st4" d="
	M67.8,112.3c-18.6-4.1-30.6-22.8-26.6-41.9s22.3-31.2,40.9-27.2s30.6,22.8,26.6,41.9c-3.9,18.7-21.7,30.8-40.2,27.3"/>
</svg>
